<svg width="39" height="39" viewBox="0 0 39 39" fill="none" xmlns="http://www.w3.org/2000/svg">
<g clip-path="url(#clip0_5_52)">
<g style="mix-blend-mode:multiply">
<path d="M19.5 39C30.2696 39 39 30.2696 39 19.5C39 8.73045 30.2696 0 19.5 0C8.73045 0 0 8.73045 0 19.5C0 30.2696 8.73045 39 19.5 39Z" fill="#F4ECE1"/>
</g>
<path d="M36.4494 23.4986C38.6588 14.1374 32.8613 4.75765 23.5001 2.54823C14.139 0.338801 4.75923 6.1364 2.5498 15.4975C0.340379 24.8586 6.13797 34.2384 15.4991 36.4478C24.8602 38.6573 34.24 32.8597 36.4494 23.4986Z" fill="#043792"/>
<path d="M33.4739 22.7963C35.2955 15.0785 30.5157 7.34527 22.7979 5.5237C15.08 3.70213 7.34686 8.48198 5.52529 16.1998C3.70372 23.9176 8.48357 31.6508 16.2014 33.4723C23.9192 35.2939 31.6524 30.5141 33.4739 22.7963Z" fill="white"/>
<path d="M19.5 28.6717C24.5654 28.6717 28.6717 24.5654 28.6717 19.5C28.6717 14.4346 24.5654 10.3283 19.5 10.3283C14.4346 10.3283 10.3283 14.4346 10.3283 19.5C10.3283 24.5654 14.4346 28.6717 19.5 28.6717Z" fill="#2C97DE"/>
<path d="M24.0152 20.5638C24.6038 18.0699 23.0593 15.5711 20.5654 14.9824C18.0715 14.3938 15.5726 15.9384 14.984 18.4323C14.3954 20.9261 15.94 23.425 18.4338 24.0136C20.9277 24.6022 23.4266 23.0577 24.0152 20.5638Z" fill="black"/>
</g>
<defs>
<clipPath id="clip0_5_52">
<rect width="39" height="39" fill="white"/>
</clipPath>
</defs>
</svg>
