<svg width="41" height="27" viewBox="0 0 41 27" fill="none" xmlns="http://www.w3.org/2000/svg">
<path d="M20.3962 1.92038C7.00853 1.92038 1.09988 13.543 1.09988 13.543C1.09988 13.543 7.00853 25.1656 20.3962 25.1656C33.784 25.1656 39.6926 13.543 39.6926 13.543C39.6926 13.543 33.784 1.92038 20.3962 1.92038Z" fill="white" stroke="#C29659" stroke-width="2" stroke-linecap="round" stroke-linejoin="round"/>
<path d="M20.3963 23.1592C25.5924 23.1592 29.8047 18.8539 29.8047 13.543C29.8047 8.2321 25.5924 3.92676 20.3963 3.92676C15.2001 3.92676 10.9878 8.2321 10.9878 13.543C10.9878 18.8539 15.2001 23.1592 20.3963 23.1592Z" fill="black"/>
<path d="M23.6193 21.4966C27.9176 19.6768 29.9588 14.6401 28.1784 10.2468C26.3979 5.85354 21.4701 3.76728 17.1717 5.58704C12.8734 7.40681 10.8322 12.4435 12.6126 16.8368C14.3931 21.2301 19.3209 23.3164 23.6193 21.4966Z" fill="#043792"/>
<path d="M20.3962 18.9774C23.3327 18.9774 25.7132 16.5443 25.7132 13.543C25.7132 10.5417 23.3327 8.10861 20.3962 8.10861C17.4598 8.10861 15.0793 10.5417 15.0793 13.543C15.0793 16.5443 17.4598 18.9774 20.3962 18.9774Z" fill="white"/>
<path d="M21.5363 16.3567C23.0573 15.7128 23.7796 13.9305 23.1495 12.3758C22.5195 10.8212 20.7757 10.083 19.2547 10.7269C17.7337 11.3709 17.0114 13.1532 17.6414 14.7078C18.2715 16.2624 20.0152 17.0006 21.5363 16.3567Z" fill="#2C97DE"/>
</svg>
